<mxfile host="65bd71144e" scale="1" border="40">
    <diagram name="Page-1" id="fRiy-pWOeX1Crx3BH6d4">
        <mxGraphModel dx="735" dy="828" grid="1" gridSize="10" guides="1" tooltips="1" connect="1" arrows="1" fold="1" page="1" pageScale="1" pageWidth="827" pageHeight="1169" background="#ffffff" math="1" shadow="0">
            <root>
                <mxCell id="0"/>
                <mxCell id="1" parent="0"/>
                <mxCell id="2T5lbwQD9pMYk0cFuJf9-7" value="" style="rounded=0;whiteSpace=wrap;html=1;strokeWidth=0;fillColor=#dae8fc;strokeColor=#6c8ebf;" parent="1" vertex="1">
                    <mxGeometry x="320" y="400" width="200" height="200" as="geometry"/>
                </mxCell>
                <mxCell id="2T5lbwQD9pMYk0cFuJf9-8" value="" style="rounded=0;whiteSpace=wrap;html=1;strokeWidth=0;fillColor=#dae8fc;strokeColor=#6c8ebf;" parent="1" vertex="1">
                    <mxGeometry x="280" y="600" width="280" height="40" as="geometry"/>
                </mxCell>
                <mxCell id="2T5lbwQD9pMYk0cFuJf9-10" value="" style="rounded=0;whiteSpace=wrap;html=1;strokeWidth=0;fillColor=#dae8fc;strokeColor=#6c8ebf;" parent="1" vertex="1">
                    <mxGeometry x="280" y="360" width="280" height="40" as="geometry"/>
                </mxCell>
                <mxCell id="2T5lbwQD9pMYk0cFuJf9-1" value="" style="endArrow=none;html=1;rounded=0;strokeWidth=2;" parent="1" edge="1">
                    <mxGeometry width="50" height="50" relative="1" as="geometry">
                        <mxPoint x="320" y="600" as="sourcePoint"/>
                        <mxPoint x="320" y="400" as="targetPoint"/>
                    </mxGeometry>
                </mxCell>
                <mxCell id="2T5lbwQD9pMYk0cFuJf9-2" value="" style="endArrow=none;html=1;rounded=0;strokeWidth=2;" parent="1" edge="1">
                    <mxGeometry width="50" height="50" relative="1" as="geometry">
                        <mxPoint x="520" y="600" as="sourcePoint"/>
                        <mxPoint x="520" y="400" as="targetPoint"/>
                    </mxGeometry>
                </mxCell>
                <mxCell id="2T5lbwQD9pMYk0cFuJf9-3" value="" style="endArrow=none;html=1;rounded=0;strokeWidth=2;" parent="1" edge="1">
                    <mxGeometry width="50" height="50" relative="1" as="geometry">
                        <mxPoint x="280" y="600" as="sourcePoint"/>
                        <mxPoint x="320" y="600" as="targetPoint"/>
                    </mxGeometry>
                </mxCell>
                <mxCell id="2T5lbwQD9pMYk0cFuJf9-4" value="" style="endArrow=none;html=1;rounded=0;strokeWidth=2;" parent="1" edge="1">
                    <mxGeometry width="50" height="50" relative="1" as="geometry">
                        <mxPoint x="520" y="600" as="sourcePoint"/>
                        <mxPoint x="560" y="600" as="targetPoint"/>
                    </mxGeometry>
                </mxCell>
                <mxCell id="2T5lbwQD9pMYk0cFuJf9-5" value="" style="endArrow=none;html=1;rounded=0;strokeWidth=2;" parent="1" edge="1">
                    <mxGeometry width="50" height="50" relative="1" as="geometry">
                        <mxPoint x="280" y="400" as="sourcePoint"/>
                        <mxPoint x="320" y="400" as="targetPoint"/>
                    </mxGeometry>
                </mxCell>
                <mxCell id="2T5lbwQD9pMYk0cFuJf9-6" value="" style="endArrow=none;html=1;rounded=0;strokeWidth=2;" parent="1" edge="1">
                    <mxGeometry width="50" height="50" relative="1" as="geometry">
                        <mxPoint x="520" y="400" as="sourcePoint"/>
                        <mxPoint x="560" y="400" as="targetPoint"/>
                    </mxGeometry>
                </mxCell>
                <mxCell id="2T5lbwQD9pMYk0cFuJf9-11" value="" style="endArrow=none;dashed=1;html=1;rounded=0;" parent="1" edge="1">
                    <mxGeometry width="50" height="50" relative="1" as="geometry">
                        <mxPoint x="300" y="620" as="sourcePoint"/>
                        <mxPoint x="300" y="380" as="targetPoint"/>
                    </mxGeometry>
                </mxCell>
                <mxCell id="2T5lbwQD9pMYk0cFuJf9-12" value="" style="endArrow=none;dashed=1;html=1;rounded=0;" parent="1" edge="1">
                    <mxGeometry width="50" height="50" relative="1" as="geometry">
                        <mxPoint x="540" y="620" as="sourcePoint"/>
                        <mxPoint x="540" y="380" as="targetPoint"/>
                    </mxGeometry>
                </mxCell>
                <mxCell id="2T5lbwQD9pMYk0cFuJf9-13" value="" style="endArrow=classic;startArrow=classic;html=1;rounded=0;exitX=0;exitY=0.5;exitDx=0;exitDy=0;entryX=1;entryY=0.5;entryDx=0;entryDy=0;" parent="1" source="2T5lbwQD9pMYk0cFuJf9-7" target="2T5lbwQD9pMYk0cFuJf9-7" edge="1">
                    <mxGeometry width="50" height="50" relative="1" as="geometry">
                        <mxPoint x="390" y="560" as="sourcePoint"/>
                        <mxPoint x="440" y="510" as="targetPoint"/>
                    </mxGeometry>
                </mxCell>
                <mxCell id="2T5lbwQD9pMYk0cFuJf9-14" value="inner width" style="edgeLabel;html=1;align=center;verticalAlign=middle;resizable=0;points=[];labelBackgroundColor=none;fontSize=16;" parent="2T5lbwQD9pMYk0cFuJf9-13" connectable="0" vertex="1">
                    <mxGeometry x="0.1929" y="1" relative="1" as="geometry">
                        <mxPoint x="-25" y="-9" as="offset"/>
                    </mxGeometry>
                </mxCell>
                <mxCell id="2T5lbwQD9pMYk0cFuJf9-15" value="" style="endArrow=classic;startArrow=classic;html=1;rounded=0;exitX=0.25;exitY=1;exitDx=0;exitDy=0;entryX=0.25;entryY=0;entryDx=0;entryDy=0;" parent="1" edge="1">
                    <mxGeometry width="50" height="50" relative="1" as="geometry">
                        <mxPoint x="560" y="600" as="sourcePoint"/>
                        <mxPoint x="560" y="400" as="targetPoint"/>
                    </mxGeometry>
                </mxCell>
                <mxCell id="2T5lbwQD9pMYk0cFuJf9-16" value="depth" style="edgeLabel;html=1;align=center;verticalAlign=middle;resizable=0;points=[];fontSize=16;" parent="2T5lbwQD9pMYk0cFuJf9-15" connectable="0" vertex="1">
                    <mxGeometry x="-0.09" relative="1" as="geometry">
                        <mxPoint x="30" y="-9" as="offset"/>
                    </mxGeometry>
                </mxCell>
                <mxCell id="2T5lbwQD9pMYk0cFuJf9-17" value="" style="endArrow=classic;startArrow=classic;html=1;rounded=0;" parent="1" edge="1">
                    <mxGeometry width="50" height="50" relative="1" as="geometry">
                        <mxPoint x="300" y="620" as="sourcePoint"/>
                        <mxPoint x="540" y="620" as="targetPoint"/>
                    </mxGeometry>
                </mxCell>
                <mxCell id="2T5lbwQD9pMYk0cFuJf9-18" value="screw distance" style="edgeLabel;html=1;align=center;verticalAlign=middle;resizable=0;points=[];labelBackgroundColor=none;fontSize=16;" parent="2T5lbwQD9pMYk0cFuJf9-17" connectable="0" vertex="1">
                    <mxGeometry x="-0.006" relative="1" as="geometry">
                        <mxPoint x="1" y="-10" as="offset"/>
                    </mxGeometry>
                </mxCell>
                <mxCell id="2T5lbwQD9pMYk0cFuJf9-19" value="" style="endArrow=classic;startArrow=classic;html=1;rounded=0;" parent="1" edge="1">
                    <mxGeometry width="50" height="50" relative="1" as="geometry">
                        <mxPoint x="280" y="640" as="sourcePoint"/>
                        <mxPoint x="560" y="640" as="targetPoint"/>
                    </mxGeometry>
                </mxCell>
                <mxCell id="2T5lbwQD9pMYk0cFuJf9-20" value="outer width" style="edgeLabel;html=1;align=center;verticalAlign=middle;resizable=0;points=[];fontSize=16;" parent="2T5lbwQD9pMYk0cFuJf9-19" connectable="0" vertex="1">
                    <mxGeometry x="0.1582" relative="1" as="geometry">
                        <mxPoint x="-22" y="10" as="offset"/>
                    </mxGeometry>
                </mxCell>
                <mxCell id="2T5lbwQD9pMYk0cFuJf9-21" value="TOP VIEW" style="text;html=1;align=center;verticalAlign=middle;resizable=0;points=[];autosize=1;strokeColor=none;fillColor=none;fontSize=24;" parent="1" vertex="1">
                    <mxGeometry x="344" y="280" width="140" height="40" as="geometry"/>
                </mxCell>
                <mxCell id="2T5lbwQD9pMYk0cFuJf9-22" value="FRONT VIEW" style="text;html=1;align=center;verticalAlign=middle;resizable=0;points=[];autosize=1;strokeColor=none;fillColor=none;fontSize=24;" parent="1" vertex="1">
                    <mxGeometry x="695" y="280" width="170" height="40" as="geometry"/>
                </mxCell>
                <mxCell id="2T5lbwQD9pMYk0cFuJf9-23" value="" style="rounded=0;whiteSpace=wrap;html=1;strokeWidth=0;fillColor=#dae8fc;strokeColor=#6c8ebf;" parent="1" vertex="1">
                    <mxGeometry x="680" y="440" width="200" height="120" as="geometry"/>
                </mxCell>
                <mxCell id="2T5lbwQD9pMYk0cFuJf9-26" value="" style="endArrow=none;html=1;rounded=0;strokeWidth=2;" parent="1" edge="1">
                    <mxGeometry width="50" height="50" relative="1" as="geometry">
                        <mxPoint x="680" y="560" as="sourcePoint"/>
                        <mxPoint x="680" y="440" as="targetPoint"/>
                    </mxGeometry>
                </mxCell>
                <mxCell id="2T5lbwQD9pMYk0cFuJf9-28" value="" style="endArrow=none;html=1;rounded=0;strokeWidth=2;" parent="1" edge="1">
                    <mxGeometry width="50" height="50" relative="1" as="geometry">
                        <mxPoint x="640" y="560" as="sourcePoint"/>
                        <mxPoint x="680" y="560" as="targetPoint"/>
                    </mxGeometry>
                </mxCell>
                <mxCell id="2T5lbwQD9pMYk0cFuJf9-29" value="" style="endArrow=none;html=1;rounded=0;strokeWidth=2;" parent="1" edge="1">
                    <mxGeometry width="50" height="50" relative="1" as="geometry">
                        <mxPoint x="880" y="560" as="sourcePoint"/>
                        <mxPoint x="920" y="560" as="targetPoint"/>
                    </mxGeometry>
                </mxCell>
                <mxCell id="2T5lbwQD9pMYk0cFuJf9-30" value="" style="endArrow=none;html=1;rounded=0;strokeWidth=2;" parent="1" edge="1">
                    <mxGeometry width="50" height="50" relative="1" as="geometry">
                        <mxPoint x="640" y="440" as="sourcePoint"/>
                        <mxPoint x="680" y="440" as="targetPoint"/>
                    </mxGeometry>
                </mxCell>
                <mxCell id="2T5lbwQD9pMYk0cFuJf9-31" value="" style="endArrow=none;html=1;rounded=0;strokeWidth=2;" parent="1" edge="1">
                    <mxGeometry width="50" height="50" relative="1" as="geometry">
                        <mxPoint x="880" y="440" as="sourcePoint"/>
                        <mxPoint x="920" y="440" as="targetPoint"/>
                    </mxGeometry>
                </mxCell>
                <mxCell id="2T5lbwQD9pMYk0cFuJf9-32" value="" style="endArrow=none;dashed=1;html=1;rounded=0;" parent="1" source="2T5lbwQD9pMYk0cFuJf9-49" edge="1">
                    <mxGeometry width="50" height="50" relative="1" as="geometry">
                        <mxPoint x="660" y="619.43" as="sourcePoint"/>
                        <mxPoint x="660" y="420" as="targetPoint"/>
                    </mxGeometry>
                </mxCell>
                <mxCell id="2T5lbwQD9pMYk0cFuJf9-33" value="" style="endArrow=none;dashed=1;html=1;rounded=0;" parent="1" source="2T5lbwQD9pMYk0cFuJf9-43" edge="1">
                    <mxGeometry width="50" height="50" relative="1" as="geometry">
                        <mxPoint x="900" y="619.43" as="sourcePoint"/>
                        <mxPoint x="900" y="420" as="targetPoint"/>
                    </mxGeometry>
                </mxCell>
                <mxCell id="2T5lbwQD9pMYk0cFuJf9-34" value="" style="endArrow=classic;startArrow=classic;html=1;rounded=0;exitX=0;exitY=0.5;exitDx=0;exitDy=0;entryX=1;entryY=0.5;entryDx=0;entryDy=0;" parent="1" edge="1">
                    <mxGeometry width="50" height="50" relative="1" as="geometry">
                        <mxPoint x="680" y="539.71" as="sourcePoint"/>
                        <mxPoint x="880" y="539.71" as="targetPoint"/>
                    </mxGeometry>
                </mxCell>
                <mxCell id="2T5lbwQD9pMYk0cFuJf9-35" value="inner width" style="edgeLabel;html=1;align=center;verticalAlign=middle;resizable=0;points=[];labelBackgroundColor=none;fontSize=16;" parent="2T5lbwQD9pMYk0cFuJf9-34" connectable="0" vertex="1">
                    <mxGeometry x="0.1929" y="1" relative="1" as="geometry">
                        <mxPoint x="-25" y="-9" as="offset"/>
                    </mxGeometry>
                </mxCell>
                <mxCell id="2T5lbwQD9pMYk0cFuJf9-36" value="" style="endArrow=classic;startArrow=classic;html=1;rounded=0;" parent="1" edge="1">
                    <mxGeometry width="50" height="50" relative="1" as="geometry">
                        <mxPoint x="960" y="560" as="sourcePoint"/>
                        <mxPoint x="960" y="440" as="targetPoint"/>
                    </mxGeometry>
                </mxCell>
                <mxCell id="2T5lbwQD9pMYk0cFuJf9-37" value="height" style="edgeLabel;html=1;align=center;verticalAlign=middle;resizable=0;points=[];fontSize=16;" parent="2T5lbwQD9pMYk0cFuJf9-36" connectable="0" vertex="1">
                    <mxGeometry x="-0.09" relative="1" as="geometry">
                        <mxPoint x="30" y="-9" as="offset"/>
                    </mxGeometry>
                </mxCell>
                <mxCell id="2T5lbwQD9pMYk0cFuJf9-38" value="" style="endArrow=classic;startArrow=classic;html=1;rounded=0;" parent="1" edge="1">
                    <mxGeometry width="50" height="50" relative="1" as="geometry">
                        <mxPoint x="660" y="619.43" as="sourcePoint"/>
                        <mxPoint x="900" y="619.43" as="targetPoint"/>
                    </mxGeometry>
                </mxCell>
                <mxCell id="2T5lbwQD9pMYk0cFuJf9-39" value="screw distance" style="edgeLabel;html=1;align=center;verticalAlign=middle;resizable=0;points=[];labelBackgroundColor=none;fontSize=16;" parent="2T5lbwQD9pMYk0cFuJf9-38" connectable="0" vertex="1">
                    <mxGeometry x="-0.006" relative="1" as="geometry">
                        <mxPoint x="1" y="-10" as="offset"/>
                    </mxGeometry>
                </mxCell>
                <mxCell id="2T5lbwQD9pMYk0cFuJf9-40" value="" style="endArrow=classic;startArrow=classic;html=1;rounded=0;" parent="1" edge="1">
                    <mxGeometry width="50" height="50" relative="1" as="geometry">
                        <mxPoint x="640" y="639.43" as="sourcePoint"/>
                        <mxPoint x="920" y="639.43" as="targetPoint"/>
                    </mxGeometry>
                </mxCell>
                <mxCell id="2T5lbwQD9pMYk0cFuJf9-41" value="outer width" style="edgeLabel;html=1;align=center;verticalAlign=middle;resizable=0;points=[];fontSize=16;" parent="2T5lbwQD9pMYk0cFuJf9-40" connectable="0" vertex="1">
                    <mxGeometry x="0.1582" relative="1" as="geometry">
                        <mxPoint x="-22" y="10" as="offset"/>
                    </mxGeometry>
                </mxCell>
                <mxCell id="2T5lbwQD9pMYk0cFuJf9-42" value="" style="endArrow=none;html=1;rounded=0;strokeWidth=2;" parent="1" edge="1">
                    <mxGeometry width="50" height="50" relative="1" as="geometry">
                        <mxPoint x="880" y="560" as="sourcePoint"/>
                        <mxPoint x="880" y="440" as="targetPoint"/>
                    </mxGeometry>
                </mxCell>
                <mxCell id="2T5lbwQD9pMYk0cFuJf9-44" value="" style="endArrow=none;dashed=1;html=1;rounded=0;" parent="1" target="2T5lbwQD9pMYk0cFuJf9-43" edge="1">
                    <mxGeometry width="50" height="50" relative="1" as="geometry">
                        <mxPoint x="900" y="619.43" as="sourcePoint"/>
                        <mxPoint x="900" y="379.43" as="targetPoint"/>
                    </mxGeometry>
                </mxCell>
                <mxCell id="2T5lbwQD9pMYk0cFuJf9-45" value="" style="ellipse;whiteSpace=wrap;html=1;aspect=fixed;" parent="1" vertex="1">
                    <mxGeometry x="890" y="530" width="20" height="20" as="geometry"/>
                </mxCell>
                <mxCell id="2T5lbwQD9pMYk0cFuJf9-47" value="" style="ellipse;whiteSpace=wrap;html=1;aspect=fixed;" parent="1" vertex="1">
                    <mxGeometry x="650" y="490" width="20" height="20" as="geometry"/>
                </mxCell>
                <mxCell id="2T5lbwQD9pMYk0cFuJf9-48" value="" style="ellipse;whiteSpace=wrap;html=1;aspect=fixed;" parent="1" vertex="1">
                    <mxGeometry x="650" y="450" width="20" height="20" as="geometry"/>
                </mxCell>
                <mxCell id="2T5lbwQD9pMYk0cFuJf9-50" value="" style="endArrow=none;dashed=1;html=1;rounded=0;" parent="1" target="2T5lbwQD9pMYk0cFuJf9-49" edge="1">
                    <mxGeometry width="50" height="50" relative="1" as="geometry">
                        <mxPoint x="660" y="619.43" as="sourcePoint"/>
                        <mxPoint x="660" y="379.43" as="targetPoint"/>
                    </mxGeometry>
                </mxCell>
                <mxCell id="2T5lbwQD9pMYk0cFuJf9-49" value="" style="ellipse;whiteSpace=wrap;html=1;aspect=fixed;" parent="1" vertex="1">
                    <mxGeometry x="650" y="530" width="20" height="20" as="geometry"/>
                </mxCell>
                <mxCell id="2T5lbwQD9pMYk0cFuJf9-51" value="" style="endArrow=classic;startArrow=classic;html=1;rounded=0;" parent="1" edge="1">
                    <mxGeometry width="50" height="50" relative="1" as="geometry">
                        <mxPoint x="850" y="500" as="sourcePoint"/>
                        <mxPoint x="850" y="460" as="targetPoint"/>
                    </mxGeometry>
                </mxCell>
                <mxCell id="2T5lbwQD9pMYk0cFuJf9-52" value="screw&lt;div&gt;height&lt;/div&gt;" style="edgeLabel;html=1;align=center;verticalAlign=middle;resizable=0;points=[];fontSize=16;labelBackgroundColor=none;" parent="2T5lbwQD9pMYk0cFuJf9-51" connectable="0" vertex="1">
                    <mxGeometry x="-0.09" relative="1" as="geometry">
                        <mxPoint x="-40" y="-2" as="offset"/>
                    </mxGeometry>
                </mxCell>
                <mxCell id="2T5lbwQD9pMYk0cFuJf9-53" value="" style="endArrow=none;dashed=1;html=1;rounded=0;" parent="1" edge="1">
                    <mxGeometry width="50" height="50" relative="1" as="geometry">
                        <mxPoint x="850" y="459.71" as="sourcePoint"/>
                        <mxPoint x="930" y="459.71" as="targetPoint"/>
                    </mxGeometry>
                </mxCell>
                <mxCell id="2T5lbwQD9pMYk0cFuJf9-54" value="" style="endArrow=none;dashed=1;html=1;rounded=0;" parent="1" edge="1">
                    <mxGeometry width="50" height="50" relative="1" as="geometry">
                        <mxPoint x="850" y="499.71" as="sourcePoint"/>
                        <mxPoint x="930" y="499.71" as="targetPoint"/>
                    </mxGeometry>
                </mxCell>
                <mxCell id="2T5lbwQD9pMYk0cFuJf9-43" value="" style="ellipse;whiteSpace=wrap;html=1;aspect=fixed;" parent="1" vertex="1">
                    <mxGeometry x="890" y="490" width="20" height="20" as="geometry"/>
                </mxCell>
                <mxCell id="2T5lbwQD9pMYk0cFuJf9-46" value="" style="ellipse;whiteSpace=wrap;html=1;aspect=fixed;" parent="1" vertex="1">
                    <mxGeometry x="890" y="450" width="20" height="20" as="geometry"/>
                </mxCell>
                <mxCell id="2T5lbwQD9pMYk0cFuJf9-55" value="" style="endArrow=none;dashed=1;html=1;rounded=0;" parent="1" edge="1">
                    <mxGeometry width="50" height="50" relative="1" as="geometry">
                        <mxPoint x="880" y="440" as="sourcePoint"/>
                        <mxPoint x="960" y="440" as="targetPoint"/>
                    </mxGeometry>
                </mxCell>
                <mxCell id="2T5lbwQD9pMYk0cFuJf9-56" value="" style="endArrow=none;dashed=1;html=1;rounded=0;" parent="1" edge="1">
                    <mxGeometry width="50" height="50" relative="1" as="geometry">
                        <mxPoint x="880" y="560" as="sourcePoint"/>
                        <mxPoint x="960" y="560" as="targetPoint"/>
                    </mxGeometry>
                </mxCell>
                <mxCell id="2T5lbwQD9pMYk0cFuJf9-57" value="" style="endArrow=none;dashed=1;html=1;rounded=0;" parent="1" edge="1">
                    <mxGeometry width="50" height="50" relative="1" as="geometry">
                        <mxPoint x="920" y="560" as="sourcePoint"/>
                        <mxPoint x="920" y="640" as="targetPoint"/>
                    </mxGeometry>
                </mxCell>
                <mxCell id="2T5lbwQD9pMYk0cFuJf9-58" value="" style="endArrow=none;dashed=1;html=1;rounded=0;" parent="1" edge="1">
                    <mxGeometry width="50" height="50" relative="1" as="geometry">
                        <mxPoint x="640" y="560" as="sourcePoint"/>
                        <mxPoint x="640" y="640" as="targetPoint"/>
                    </mxGeometry>
                </mxCell>
                <mxCell id="2T5lbwQD9pMYk0cFuJf9-59" value="" style="endArrow=none;dashed=1;html=1;rounded=0;" parent="1" edge="1">
                    <mxGeometry width="50" height="50" relative="1" as="geometry">
                        <mxPoint x="560" y="600" as="sourcePoint"/>
                        <mxPoint x="560" y="640" as="targetPoint"/>
                    </mxGeometry>
                </mxCell>
                <mxCell id="2T5lbwQD9pMYk0cFuJf9-60" value="" style="endArrow=none;dashed=1;html=1;rounded=0;" parent="1" edge="1">
                    <mxGeometry width="50" height="50" relative="1" as="geometry">
                        <mxPoint x="280" y="600" as="sourcePoint"/>
                        <mxPoint x="280" y="640" as="targetPoint"/>
                    </mxGeometry>
                </mxCell>
            </root>
        </mxGraphModel>
    </diagram>
</mxfile>